<svg width="16" height="16" xmlns="http://www.w3.org/2000/svg">
 <title/>

 <g>
  <title>background</title>
  <rect fill="none" id="canvas_background" height="402" width="582" y="-1" x="-1"/>
 </g>
 <g>
  <title>Layer 1</title>
  <path fill="#0f5e6a" id="Shape" d="m9.73196,8.48454l4.9498,4.24268c-0.18008,0.16824 -0.42226,0.27278 -0.6886,0.27278l-11.98632,0c-0.26765,0 -0.5106,-0.10294 -0.69077,-0.27092l4.95197,-4.24454l1.73196,1.51546l1.73196,-1.51546zm-1.73196,0.51546l-6.68176,-5.72722c0.18008,-0.16824 0.42226,-0.27278 0.6886,-0.27278l11.98632,0c0.26765,0 0.5106,0.10294 0.69077,0.27092l-6.68393,5.72908zm7,3.18561l-4.83264,-4.10675l4.83264,-4.20344l0,8.31019l0,0zm-14,0l0,-8.30746l4.83264,4.20071l-4.83264,4.10675l0,0zm0,0"/>
 </g>
</svg>