<svg width="500" height="500" xmlns="http://www.w3.org/2000/svg">

 <g>
  <title>background</title>
  <rect fill="none" id="canvas_background" height="402" width="582" y="-1" x="-1"/>
 </g>
 <g>
  <title>Layer 1</title>
  <path id="svg_1" fill-rule="evenodd" fill="#0f5e6a" d="m250,31.949c-77.679,0 -155.545,13.902 -183.798,41.611c-23.441,22.988 -31.255,63.599 -33.889,89.312c0,0 -0.363,2.541 -0.363,3.634c0,10.083 8.175,18.17 18.17,18.17c1.181,0 44.882,-3.544 71.229,-5.724c0.634,-0.092 1.273,-0.182 1.907,-0.363c9.813,-0.271 17.719,-8.268 17.719,-18.17l0.088,-35.798c0,-11.084 8.998,-19.989 20.083,-19.989l177.707,0c11.087,0 20.086,8.904 20.086,19.989l0.089,35.798c0,9.902 7.905,17.899 17.717,18.17c0.63,0.182 1.269,0.271 1.91,0.363c26.349,2.179 70.049,5.724 71.226,5.724c9.991,0 18.172,-8.087 18.172,-18.17c0,-1.093 -0.363,-3.634 -0.363,-3.634c-2.636,-25.713 -10.441,-66.323 -33.883,-89.312c-28.262,-27.709 -106.128,-41.611 -183.807,-41.611zm0,236.223c-20.079,0 -36.342,16.262 -36.342,36.341s16.263,36.34 36.342,36.34s36.341,-16.261 36.341,-36.34s-16.262,-36.341 -36.341,-36.341zm-27.256,-81.771l0,-22.713c0,-12.537 -10.177,-22.713 -22.713,-22.713s-22.713,10.177 -22.713,22.713l0,22.713l-122.568,130.923c-8.446,8.269 -13.717,19.804 -13.717,32.527l0,36.433c0,20.079 16.264,36.34 36.342,36.34l9.086,0l0,22.716c0,12.536 10.178,22.711 22.714,22.711s22.713,-10.175 22.713,-22.711l0,-22.716l236.224,0l0,22.716c0,12.536 10.174,22.711 22.715,22.711c12.536,0 22.711,-10.175 22.711,-22.711l0,-22.716l9.086,0c20.079,0 36.341,-16.261 36.341,-36.34l0,-36.433c0,-12.724 -5.27,-24.259 -13.717,-32.527l-122.563,-130.923l0,-22.713c0,-12.537 -10.179,-22.713 -22.715,-22.713s-22.712,10.177 -22.712,22.713l0,22.713l-54.514,0zm27.256,45.429c40.158,0 72.685,32.526 72.685,72.683c0,40.158 -32.526,72.686 -72.685,72.686c-40.158,0 -72.683,-32.527 -72.683,-72.686c0,-40.158 32.525,-72.683 72.683,-72.683z" clip-rule="evenodd"/>
 </g>
</svg>